<mxfile host="65bd71144e">
    <diagram id="CkFFaTq8pukQxS9Eaz4B" name="Page-1">
        <mxGraphModel dx="576" dy="467" grid="0" gridSize="10" guides="1" tooltips="1" connect="1" arrows="1" fold="1" page="1" pageScale="1" pageWidth="1169" pageHeight="827" math="0" shadow="0">
            <root>
                <mxCell id="0"/>
                <mxCell id="1" parent="0"/>
                <mxCell id="wKXp7ARuhJFSpsYp4eCa-26" style="edgeStyle=orthogonalEdgeStyle;rounded=0;orthogonalLoop=1;jettySize=auto;html=1;entryX=0.061;entryY=0.014;entryDx=0;entryDy=0;entryPerimeter=0;endArrow=none;endFill=0;exitX=0.5;exitY=1;exitDx=0;exitDy=0;exitPerimeter=0;" parent="1" source="wKXp7ARuhJFSpsYp4eCa-47" target="wKXp7ARuhJFSpsYp4eCa-21" edge="1">
                    <mxGeometry relative="1" as="geometry"/>
                </mxCell>
                <mxCell id="wKXp7ARuhJFSpsYp4eCa-27" style="edgeStyle=orthogonalEdgeStyle;rounded=0;orthogonalLoop=1;jettySize=auto;html=1;endArrow=none;endFill=0;exitX=0.5;exitY=0;exitDx=0;exitDy=0;exitPerimeter=0;entryX=0.441;entryY=0.981;entryDx=0;entryDy=0;entryPerimeter=0;" parent="1" source="wKXp7ARuhJFSpsYp4eCa-49" target="wKXp7ARuhJFSpsYp4eCa-25" edge="1">
                    <mxGeometry relative="1" as="geometry"/>
                </mxCell>
                <mxCell id="wKXp7ARuhJFSpsYp4eCa-19" value="" style="verticalLabelPosition=bottom;aspect=fixed;html=1;verticalAlign=top;fillColor=strokeColor;align=center;outlineConnect=0;shape=mxgraph.fluid_power.x11260;points=[[0.57,0,0],[0.57,1,0]]" parent="1" vertex="1">
                    <mxGeometry x="186" y="473.01" width="96.84" height="93.94" as="geometry"/>
                </mxCell>
                <mxCell id="wKXp7ARuhJFSpsYp4eCa-20" value="M" style="dashed=0;outlineConnect=0;align=center;html=1;shape=mxgraph.pid.engines.electric_motor_(ac);fontSize=45;" parent="1" vertex="1">
                    <mxGeometry x="104" y="480.48" width="82" height="78.99" as="geometry"/>
                </mxCell>
                <mxCell id="wKXp7ARuhJFSpsYp4eCa-21" value="Tank" style="shape=mxgraph.pid.vessels.container,_tank,_cistern;html=1;pointerEvents=1;align=center;verticalLabelPosition=bottom;verticalAlign=top;dashed=0;" parent="1" vertex="1">
                    <mxGeometry x="222" y="689" width="327.5" height="70" as="geometry"/>
                </mxCell>
                <mxCell id="wKXp7ARuhJFSpsYp4eCa-28" style="edgeStyle=orthogonalEdgeStyle;rounded=0;orthogonalLoop=1;jettySize=auto;html=1;endArrow=oval;endFill=1;exitX=0.47;exitY=1;exitDx=0;exitDy=0;exitPerimeter=0;" parent="1" source="wKXp7ARuhJFSpsYp4eCa-23" edge="1">
                    <mxGeometry relative="1" as="geometry">
                        <mxPoint x="241" y="462" as="targetPoint"/>
                        <Array as="points">
                            <mxPoint x="322" y="462"/>
                        </Array>
                    </mxGeometry>
                </mxCell>
                <mxCell id="wKXp7ARuhJFSpsYp4eCa-33" style="edgeStyle=orthogonalEdgeStyle;rounded=0;orthogonalLoop=1;jettySize=auto;html=1;startArrow=none;startFill=0;endArrow=classic;endFill=1;exitX=0.47;exitY=0;exitDx=0;exitDy=0;exitPerimeter=0;" parent="1" source="wKXp7ARuhJFSpsYp4eCa-23" target="wKXp7ARuhJFSpsYp4eCa-21" edge="1">
                    <mxGeometry relative="1" as="geometry">
                        <Array as="points">
                            <mxPoint x="322" y="342"/>
                            <mxPoint x="532" y="342"/>
                        </Array>
                    </mxGeometry>
                </mxCell>
                <mxCell id="wKXp7ARuhJFSpsYp4eCa-23" value="" style="verticalLabelPosition=bottom;aspect=fixed;html=1;verticalAlign=top;fillColor=strokeColor;align=center;outlineConnect=0;shape=mxgraph.fluid_power.x10500;points=[[0.47,0,0],[0.47,1,0]]" parent="1" vertex="1">
                    <mxGeometry x="284.94" y="366" width="79.06" height="75.54" as="geometry"/>
                </mxCell>
                <mxCell id="wKXp7ARuhJFSpsYp4eCa-29" style="edgeStyle=orthogonalEdgeStyle;rounded=0;orthogonalLoop=1;jettySize=auto;html=1;startArrow=none;startFill=0;endArrow=oval;endFill=1;exitX=0.553;exitY=1.005;exitDx=0;exitDy=0;exitPerimeter=0;" parent="1" source="wKXp7ARuhJFSpsYp4eCa-25" edge="1">
                    <mxGeometry relative="1" as="geometry">
                        <mxPoint x="532" y="342" as="targetPoint"/>
                        <Array as="points">
                            <mxPoint x="429" y="305"/>
                            <mxPoint x="532" y="305"/>
                        </Array>
                    </mxGeometry>
                </mxCell>
                <mxCell id="wKXp7ARuhJFSpsYp4eCa-31" style="edgeStyle=orthogonalEdgeStyle;rounded=0;orthogonalLoop=1;jettySize=auto;html=1;startArrow=none;startFill=0;endArrow=oval;endFill=1;exitX=0.443;exitY=0;exitDx=0;exitDy=0;exitPerimeter=0;" parent="1" source="wKXp7ARuhJFSpsYp4eCa-25" edge="1">
                    <mxGeometry relative="1" as="geometry">
                        <mxPoint x="403" y="122" as="targetPoint"/>
                    </mxGeometry>
                </mxCell>
                <mxCell id="wKXp7ARuhJFSpsYp4eCa-32" style="edgeStyle=orthogonalEdgeStyle;rounded=0;orthogonalLoop=1;jettySize=auto;html=1;startArrow=none;startFill=0;endArrow=oval;endFill=1;exitX=0.552;exitY=-0.001;exitDx=0;exitDy=0;exitPerimeter=0;" parent="1" source="wKXp7ARuhJFSpsYp4eCa-25" edge="1">
                    <mxGeometry relative="1" as="geometry">
                        <mxPoint x="433" y="52" as="targetPoint"/>
                        <Array as="points">
                            <mxPoint x="428" y="172"/>
                            <mxPoint x="432" y="172"/>
                            <mxPoint x="432" y="52"/>
                        </Array>
                    </mxGeometry>
                </mxCell>
                <mxCell id="wKXp7ARuhJFSpsYp4eCa-25" value="" style="shape=image;aspect=fixed;image=data:image/svg+xml,PD94bWwgdmVyc2lvbj0iMS4wIiBlbmNvZGluZz0iVVRGLTgiIHN0YW5kYWxvbmU9Im5vIj8+CjxzdmcKICAgdmVyc2lvbj0iMS4xIgogICB3aWR0aD0iMTY5cHgiCiAgIGhlaWdodD0iNzZweCIKICAgdmlld0JveD0iLTAuNSAtMC41IDE2OSA3NiIKICAgc3R5bGU9ImJhY2tncm91bmQtY29sb3I6IHJnYigyNTUsIDI1NSwgMjU1KTsiCiAgIGlkPSJzdmcyNTIxIgogICBzb2RpcG9kaTpkb2NuYW1lPSJoeWRyYWxpa2stc3Rhc2pvbl9kaWFncmFtLnN2ZyIKICAgaW5rc2NhcGU6dmVyc2lvbj0iMS4yLjEgKDljNmQ0MWU0MTAsIDIwMjItMDctMTQpIgogICB4bWxuczppbmtzY2FwZT0iaHR0cDovL3d3dy5pbmtzY2FwZS5vcmcvbmFtZXNwYWNlcy9pbmtzY2FwZSIKICAgeG1sbnM6c29kaXBvZGk9Imh0dHA6Ly9zb2RpcG9kaS5zb3VyY2Vmb3JnZS5uZXQvRFREL3NvZGlwb2RpLTAuZHRkIgogICB4bWxucz0iaHR0cDovL3d3dy53My5vcmcvMjAwMC9zdmciCiAgIHhtbG5zOnN2Zz0iaHR0cDovL3d3dy53My5vcmcvMjAwMC9zdmciPgogIDxzb2RpcG9kaTpuYW1lZHZpZXcKICAgICBpZD0ibmFtZWR2aWV3MjUyMyIKICAgICBwYWdlY29sb3I9IiNmZmZmZmYiCiAgICAgYm9yZGVyY29sb3I9IiMwMDAwMDAiCiAgICAgYm9yZGVyb3BhY2l0eT0iMC4yNSIKICAgICBpbmtzY2FwZTpzaG93cGFnZXNoYWRvdz0iMiIKICAgICBpbmtzY2FwZTpwYWdlb3BhY2l0eT0iMC4wIgogICAgIGlua3NjYXBlOnBhZ2VjaGVja2VyYm9hcmQ9IjAiCiAgICAgaW5rc2NhcGU6ZGVza2NvbG9yPSIjZDFkMWQxIgogICAgIHNob3dncmlkPSJmYWxzZSIKICAgICBpbmtzY2FwZTp6b29tPSI1LjI4OTk0MDgiCiAgICAgaW5rc2NhcGU6Y3g9Ijg0LjUiCiAgICAgaW5rc2NhcGU6Y3k9IjM3Ljk5NjY0NCIKICAgICBpbmtzY2FwZTp3aW5kb3ctd2lkdGg9IjEzNjYiCiAgICAgaW5rc2NhcGU6d2luZG93LWhlaWdodD0iNzA1IgogICAgIGlua3NjYXBlOndpbmRvdy14PSI5NDQiCiAgICAgaW5rc2NhcGU6d2luZG93LXk9IjE0MzIiCiAgICAgaW5rc2NhcGU6d2luZG93LW1heGltaXplZD0iMSIKICAgICBpbmtzY2FwZTpjdXJyZW50LWxheWVyPSJzdmcyNTIxIiAvPgogIDxkZWZzCiAgICAgaWQ9ImRlZnMyNTEzIiAvPgogIDxwYXRoCiAgICAgZD0ibSAxMjMuMTY5OTcsMjYuNDc3MzE1IDUuMDQzODUsMi45MjAxNzkgMS41OTU3NSwtOS4xMDg0NTYgeiBtIDAuMTM4MDksMjIuMjE0NDA4IDQuNDk2NzMsLTIuNTQyMTAzIDEuOTUzODIsOC43MzAzOCB6IE0gNTIuNTM0NzY1LDQ2LjYyNTE5IDU4Ljg2NTcyNyw0Ni40MzYxNTIgNTUuOTgzODAzLDU0Ljk4IFogbSAtMTguMDEzMzc4LC0xNy4xMTYxNTIgNS45MzI4ODYsMC4xODkwMzggLTIuNjcyODg2LC05LjQ4OTAzOCB6IgogICAgIGZpbGw9IiMwMDAwMDAiCiAgICAgc3Ryb2tlPSIjMDAwMDAwIgogICAgIHN0cm9rZS1taXRlcmxpbWl0PSIxMCIKICAgICBwb2ludGVyLWV2ZW50cz0iYWxsIgogICAgIGlkPSJwYXRoMjUxNSIKICAgICBzb2RpcG9kaTpub2RldHlwZXM9ImNjY2NjY2NjY2NjY2NjY2MiIC8+CiAgPHBhdGgKICAgICBkPSJtIDE2Mi40NiwyNy43IC0xLjksOS40NiAtMy44OCwtMTguMiAtMy44NiwxOC4yIC0zLjg4LC0xOC4yIC0zLjg2LDE4LjIgLTMuODgsLTE4LjIgLTIuMDYsOS4yNCBNIDEyOS4xMTQ4MSw1My4yNzM0NjggMTA5Ljg3MjcxLDE5LjI3NzEzNyBNIDc0LjE4LDAgViAyOC4wMiBNIDEyOC45MjU3NywyMi42ODA3NjEgMTEwLjU5NzksNTUuNzAyODY0IE0gOTIuODYsMjguMiBWIDAgbSAwLDc0LjQ4IEwgOTMuMDgxNTQ0LDQ3LjA0OTAzOCA4My41NSw0Ni44IDc0LjE3NzQ5NCw0Ni44NSA3NC4xOCw3NC40OCBtIDI3LjgsLTU1LjQ2IFYgNTYuMDYgTSAxMzkuMjYsMTkgMjcuODgsMTkuMSB2IDM2Ljk2IGggMTExLjM4IHogbSAwLDM3LjAyIGggMjcuOSBWIDM3LjUgaCAtMjcuOSBtIDkuMzYsMCA5LjI4LDE4LjUyIE0gNC43LDI3LjU4IGwgMS45LDkuNDYgMy44OCwtMTguMiAzLjg2LDE4LjIgMy44NiwtMTguMiAzLjg4LDE4LjIgMy44NiwtMTguMiAyLjA4LDkuMjQgbSAzNywtOS4wNiBWIDU2LjA2IE0gMzcuNDYzMzExLDI5Ljc1ODA3NiAzNy42NTIzNDksNTUuNTIxOTI0IE0gNTUuNjg1NzI3LDE5LjM2OTAzOCA1NS40OTY2ODksNDYuODQzMjY2IE0gOTcuODQsMjguMjIgaCAtMTAgbSAtOC41OCwwIGggLTEwIE0gMjcuODgsNTYuMDYgSCAwIFYgMzcuNTIgaCAyNy44OCBtIC05LjM2LDAgLTkuMjYsMTguNTQiCiAgICAgZmlsbD0ibm9uZSIKICAgICBzdHJva2U9IiMwMDAwMDAiCiAgICAgc3Ryb2tlLW1pdGVybGltaXQ9IjEwIgogICAgIHBvaW50ZXItZXZlbnRzPSJhbGwiCiAgICAgaWQ9InBhdGgyNTE3IgogICAgIHNvZGlwb2RpOm5vZGV0eXBlcz0iY2NjY2NjY2NjY2NjY2NjY2NjY2NjY2NjY2NjY2NjY2NjY2NjY2NjY2NjY2NjY2NjY2NjY2NjY2NjYyIgLz4KPC9zdmc+Cg==;" parent="1" vertex="1">
                    <mxGeometry x="335" y="179" width="169" height="76" as="geometry"/>
                </mxCell>
                <mxCell id="wKXp7ARuhJFSpsYp4eCa-14" value="Syl 1" style="text;html=1;align=center;verticalAlign=middle;resizable=0;points=[];autosize=1;strokeColor=none;fillColor=none;rotation=0;" parent="1" vertex="1">
                    <mxGeometry x="273" y="41.00000000000006" width="45" height="26" as="geometry"/>
                </mxCell>
                <mxCell id="wKXp7ARuhJFSpsYp4eCa-9" value="Syl 2" style="text;html=1;align=center;verticalAlign=middle;resizable=0;points=[];autosize=1;strokeColor=none;fillColor=none;rotation=0;" parent="1" vertex="1">
                    <mxGeometry x="523" y="41.00000000000006" width="45" height="26" as="geometry"/>
                </mxCell>
                <mxCell id="wKXp7ARuhJFSpsYp4eCa-34" value="Pump" style="text;html=1;strokeColor=none;fillColor=none;align=center;verticalAlign=middle;whiteSpace=wrap;rounded=0;" parent="1" vertex="1">
                    <mxGeometry x="237" y="473.01" width="60" height="30" as="geometry"/>
                </mxCell>
                <mxCell id="wKXp7ARuhJFSpsYp4eCa-35" value="Pressure valve 100 bar" style="text;html=1;strokeColor=none;fillColor=none;align=center;verticalAlign=middle;whiteSpace=wrap;rounded=0;fontSize=10;" parent="1" vertex="1">
                    <mxGeometry x="315" y="344" width="87" height="49" as="geometry"/>
                </mxCell>
                <mxCell id="wKXp7ARuhJFSpsYp4eCa-42" style="edgeStyle=orthogonalEdgeStyle;rounded=0;orthogonalLoop=1;jettySize=auto;html=1;fontSize=10;startArrow=none;startFill=0;endArrow=oval;endFill=1;exitX=0.47;exitY=1;exitDx=0;exitDy=0;exitPerimeter=0;" parent="1" source="wKXp7ARuhJFSpsYp4eCa-40" edge="1">
                    <mxGeometry relative="1" as="geometry">
                        <mxPoint x="322" y="461" as="targetPoint"/>
                        <Array as="points">
                            <mxPoint x="433" y="462"/>
                            <mxPoint x="322" y="462"/>
                        </Array>
                    </mxGeometry>
                </mxCell>
                <mxCell id="wKXp7ARuhJFSpsYp4eCa-43" style="edgeStyle=orthogonalEdgeStyle;rounded=0;orthogonalLoop=1;jettySize=auto;html=1;fontSize=10;startArrow=none;startFill=0;endArrow=oval;endFill=1;exitX=0.47;exitY=0;exitDx=0;exitDy=0;exitPerimeter=0;" parent="1" source="wKXp7ARuhJFSpsYp4eCa-40" edge="1">
                    <mxGeometry relative="1" as="geometry">
                        <mxPoint x="433" y="342" as="targetPoint"/>
                    </mxGeometry>
                </mxCell>
                <mxCell id="wKXp7ARuhJFSpsYp4eCa-40" value="" style="verticalLabelPosition=bottom;aspect=fixed;html=1;verticalAlign=top;fillColor=strokeColor;align=center;outlineConnect=0;shape=mxgraph.fluid_power.x10500;points=[[0.47,0,0],[0.47,1,0]]" parent="1" vertex="1">
                    <mxGeometry x="396" y="370" width="79.06" height="75.54" as="geometry"/>
                </mxCell>
                <mxCell id="wKXp7ARuhJFSpsYp4eCa-41" value="Safety valve &lt;br&gt;110 bar" style="text;html=1;strokeColor=none;fillColor=none;align=center;verticalAlign=middle;whiteSpace=wrap;rounded=0;fontSize=10;" parent="1" vertex="1">
                    <mxGeometry x="423" y="347" width="87" height="49" as="geometry"/>
                </mxCell>
                <mxCell id="wKXp7ARuhJFSpsYp4eCa-1" value="" style="verticalLabelPosition=bottom;aspect=fixed;html=1;verticalAlign=top;fillColor=strokeColor;align=center;outlineConnect=0;shape=mxgraph.fluid_power.x11450;points=[[0.04,1,0],[0.707,1,0]];rotation=-90;" parent="1" vertex="1">
                    <mxGeometry x="290.58" y="41.00000000000006" width="111.42" height="56.04" as="geometry"/>
                </mxCell>
                <mxCell id="wKXp7ARuhJFSpsYp4eCa-16" value="" style="verticalLabelPosition=bottom;aspect=fixed;html=1;verticalAlign=top;fillColor=strokeColor;align=center;outlineConnect=0;shape=mxgraph.fluid_power.x11450;points=[[0.04,1,0],[0.707,1,0]];flipV=1;rotation=-90;" parent="1" vertex="1">
                    <mxGeometry x="434.64" y="41.00000000000006" width="111.42" height="56.04" as="geometry"/>
                </mxCell>
                <mxCell id="wKXp7ARuhJFSpsYp4eCa-17" style="edgeStyle=orthogonalEdgeStyle;rounded=0;orthogonalLoop=1;jettySize=auto;html=1;entryX=0.707;entryY=1;entryDx=0;entryDy=0;entryPerimeter=0;exitX=0.707;exitY=1;exitDx=0;exitDy=0;exitPerimeter=0;endArrow=none;endFill=0;" parent="1" source="wKXp7ARuhJFSpsYp4eCa-1" target="wKXp7ARuhJFSpsYp4eCa-16" edge="1">
                    <mxGeometry relative="1" as="geometry">
                        <Array as="points">
                            <mxPoint x="376.64" y="52.00000000000006"/>
                            <mxPoint x="462.64" y="52.00000000000006"/>
                        </Array>
                    </mxGeometry>
                </mxCell>
                <mxCell id="wKXp7ARuhJFSpsYp4eCa-18" style="edgeStyle=orthogonalEdgeStyle;rounded=0;orthogonalLoop=1;jettySize=auto;html=1;entryX=0.04;entryY=1;entryDx=0;entryDy=0;entryPerimeter=0;endArrow=none;endFill=0;exitX=0.04;exitY=1;exitDx=0;exitDy=0;exitPerimeter=0;" parent="1" source="wKXp7ARuhJFSpsYp4eCa-1" target="wKXp7ARuhJFSpsYp4eCa-16" edge="1">
                    <mxGeometry relative="1" as="geometry">
                        <Array as="points">
                            <mxPoint x="376.64" y="122.00000000000006"/>
                            <mxPoint x="462.64" y="122.00000000000006"/>
                        </Array>
                    </mxGeometry>
                </mxCell>
                <mxCell id="wKXp7ARuhJFSpsYp4eCa-44" value="a" style="text;html=1;strokeColor=none;fillColor=none;align=center;verticalAlign=middle;whiteSpace=wrap;rounded=0;fontSize=10;" parent="1" vertex="1">
                    <mxGeometry x="294.47" y="212" width="60" height="30" as="geometry"/>
                </mxCell>
                <mxCell id="wKXp7ARuhJFSpsYp4eCa-45" value="b" style="text;html=1;strokeColor=none;fillColor=none;align=center;verticalAlign=middle;whiteSpace=wrap;rounded=0;fontSize=10;" parent="1" vertex="1">
                    <mxGeometry x="486.06000000000006" y="212" width="60" height="30" as="geometry"/>
                </mxCell>
                <mxCell id="wKXp7ARuhJFSpsYp4eCa-46" value="Filter" style="text;html=1;strokeColor=none;fillColor=none;align=center;verticalAlign=middle;whiteSpace=wrap;rounded=0;fontSize=10;" parent="1" vertex="1">
                    <mxGeometry x="242" y="592" width="60" height="30" as="geometry"/>
                </mxCell>
                <mxCell id="wKXp7ARuhJFSpsYp4eCa-48" style="edgeStyle=orthogonalEdgeStyle;rounded=0;orthogonalLoop=1;jettySize=auto;html=1;entryX=0.57;entryY=1;entryDx=0;entryDy=0;entryPerimeter=0;fontSize=10;startArrow=none;startFill=0;endArrow=none;endFill=0;exitX=0.5;exitY=0;exitDx=0;exitDy=0;exitPerimeter=0;" parent="1" source="wKXp7ARuhJFSpsYp4eCa-47" target="wKXp7ARuhJFSpsYp4eCa-19" edge="1">
                    <mxGeometry relative="1" as="geometry">
                        <Array as="points">
                            <mxPoint x="242" y="582"/>
                            <mxPoint x="242" y="572"/>
                            <mxPoint x="241" y="572"/>
                        </Array>
                    </mxGeometry>
                </mxCell>
                <mxCell id="wKXp7ARuhJFSpsYp4eCa-47" value="" style="verticalLabelPosition=bottom;aspect=fixed;html=1;verticalAlign=top;fillColor=strokeColor;align=center;outlineConnect=0;shape=mxgraph.fluid_power.x11980;points=[[0.5,0,0],[0.5,1,0]]" parent="1" vertex="1">
                    <mxGeometry x="214.5" y="582" width="52.44" height="90.12" as="geometry"/>
                </mxCell>
                <mxCell id="wKXp7ARuhJFSpsYp4eCa-50" style="edgeStyle=orthogonalEdgeStyle;rounded=0;orthogonalLoop=1;jettySize=auto;html=1;entryX=0.073;entryY=0.037;entryDx=0;entryDy=0;entryPerimeter=0;fontSize=10;startArrow=none;startFill=0;endArrow=none;endFill=0;" parent="1" source="wKXp7ARuhJFSpsYp4eCa-49" target="wKXp7ARuhJFSpsYp4eCa-34" edge="1">
                    <mxGeometry relative="1" as="geometry"/>
                </mxCell>
                <mxCell id="wKXp7ARuhJFSpsYp4eCa-49" value="" style="verticalLabelPosition=bottom;aspect=fixed;html=1;verticalAlign=top;fillColor=strokeColor;align=center;outlineConnect=0;shape=mxgraph.fluid_power.x10710;points=[[0.5,0,0],[0.5,1,0]];fontSize=10;" parent="1" vertex="1">
                    <mxGeometry x="231.24" y="353" width="18.96" height="74.8" as="geometry"/>
                </mxCell>
                <mxCell id="wKXp7ARuhJFSpsYp4eCa-51" value="None-return-valve" style="text;html=1;strokeColor=none;fillColor=none;align=center;verticalAlign=middle;whiteSpace=wrap;rounded=0;fontSize=10;" parent="1" vertex="1">
                    <mxGeometry x="166" y="356.5" width="60" height="30" as="geometry"/>
                </mxCell>
                <mxCell id="uXeN60-J47ecTWFS1Ua5-1" value="Assumed hydraulic circuit&lt;br&gt;Some things might differ" style="text;html=1;strokeColor=none;fillColor=none;align=center;verticalAlign=middle;whiteSpace=wrap;rounded=0;" parent="1" vertex="1">
                    <mxGeometry x="69" y="32" width="156" height="30" as="geometry"/>
                </mxCell>
            </root>
        </mxGraphModel>
    </diagram>
</mxfile>